<svg width="26" height="30" viewBox="0 0 26 30" fill="none" xmlns="http://www.w3.org/2000/svg">
<path d="M18.0059 4.7455C18.9554 3.63884 19.6143 2.11953 19.6143 0.600222C19.6143 0.393896 19.5949 0.168812 19.5562 0C18.0253 0.0562708 16.165 0.994117 15.0605 2.26959C14.1885 3.22619 13.3746 4.7455 13.3746 6.28357C13.3746 6.50866 13.4133 6.7525 13.4327 6.82752C13.5296 6.84628 13.6846 6.86504 13.8396 6.86504C15.2349 6.86504 16.9789 5.9647 18.0059 4.7455ZM19.0911 7.1839C16.7657 7.1839 14.8861 8.55316 13.6846 8.55316C12.4057 8.55316 10.7004 7.25893 8.6851 7.25893C4.86763 7.25893 0.972656 10.3351 0.972656 16.0934C0.972656 19.7135 2.42601 23.5024 4.1894 25.9596C5.72027 28.0416 7.05735 29.7297 8.95639 29.7297C10.8554 29.7297 11.7081 28.5105 14.0722 28.5105C16.4557 28.5105 16.9983 29.6922 19.0911 29.6922C21.1839 29.6922 22.5597 27.854 23.8581 26.0346C25.3308 23.9526 25.9509 21.9269 25.9703 21.8143C25.854 21.7768 21.8621 20.22 21.8621 15.7933C21.8621 11.9857 25.0014 10.2788 25.1758 10.1475C23.1217 7.25893 19.9631 7.1839 19.0911 7.1839Z" fill="white"/>
</svg>
