<svg width="34" height="39" viewBox="0 0 34 39" fill="none" xmlns="http://www.w3.org/2000/svg">
<path d="M3.51704 1.25775L32.4858 17.9828C33.6535 18.657 33.6535 20.343 32.4858 21.0173L3.51704 37.7423C2.34929 38.4165 0.889038 37.5735 0.889038 36.225V2.775C0.889038 1.4265 2.34854 0.583503 3.51704 1.25775Z" fill="white"/>
<path d="M32.4858 17.9828L3.51706 1.25776C3.34231 1.15726 3.16156 1.10026 2.98006 1.06351L30.9858 17.2328C32.1536 17.907 32.1536 19.593 30.9858 20.2673L2.01706 36.9923C1.75531 37.143 1.48006 37.2083 1.20856 37.218C1.70056 37.9215 2.67931 38.2253 3.51706 37.7423L32.4858 21.0173C33.6536 20.343 33.6536 18.657 32.4858 17.9828Z" fill="white"/>
<path d="M3.51704 1.25775L32.4858 17.9828C33.6535 18.657 33.6535 20.343 32.4858 21.0173L3.51704 37.7423C2.34929 38.4165 0.889038 37.5735 0.889038 36.225V2.775C0.889038 1.4265 2.34854 0.583503 3.51704 1.25775Z" stroke="white" stroke-miterlimit="10"/>
</svg>
