<svg width="23" height="25" viewBox="0 0 23 25" fill="none" xmlns="http://www.w3.org/2000/svg">
<path d="M3.54671 0.81311L12.6328 10.2768C12.8688 10.5223 13.2653 10.5223 13.5013 10.2768L15.3421 8.36047C15.6159 8.07727 15.5545 7.61471 15.21 7.42118C10.4569 4.73075 4.56624 1.3984 3.54671 0.81311ZM0.794922 1.44088C0.691081 1.6816 0.625 1.9412 0.625 2.23385V22.8841C0.625 23.1201 0.676921 23.3372 0.757161 23.5449L10.9855 12.8917C11.2121 12.6604 11.2121 12.2923 10.9855 12.0563L0.794922 1.44088ZM18.075 9.18648C17.9476 9.20536 17.8249 9.26672 17.7305 9.36584L15.1439 12.0563C14.9173 12.2876 14.9173 12.6557 15.1439 12.8917L17.7069 15.5586C17.8957 15.7568 18.2025 15.7993 18.4432 15.6624C20.2321 14.6476 21.4404 13.9679 21.4404 13.9679C22.0446 13.5997 22.3844 13.038 22.375 12.4244C22.3656 11.825 22.0163 11.268 21.4357 10.9423C21.3649 10.8999 20.1849 10.2343 18.4621 9.262C18.3441 9.1912 18.2072 9.1676 18.075 9.18648ZM13.0671 14.4871C12.9066 14.4871 12.7508 14.5485 12.6281 14.6759L3.61279 24.0594C5.16569 23.1767 10.6882 20.052 15.1864 17.5079C15.5309 17.3097 15.5923 16.8471 15.3185 16.5639L13.5013 14.6759C13.3833 14.5485 13.2275 14.4871 13.0671 14.4871Z" fill="white"/>
</svg>
